<?xml version="1.0" encoding="UTF-8" standalone="no"?>
<!DOCTYPE svg PUBLIC "-//W3C//DTD SVG 1.1//EN" "http://www.w3.org/Graphics/SVG/1.1/DTD/svg11.dtd">
<svg xmlns="http://www.w3.org/2000/svg" version="1.1" viewBox="0.00 0.00 119.00 124.00">
<path fill="#f04d58" d="
  M 49.76 119.92
  Q 29.92 109.71 10.82 98.15
  C 4.40 94.27 2.79 88.57 2.69 80.50
  Q 2.39 54.92 2.52 44.25
  C 2.64 33.43 5.16 29.12 14.64 23.61
  Q 25.88 17.07 37.19 10.67
  Q 50.55 3.10 54.24 2.22
  C 64.09 -0.11 69.88 3.99 80.05 9.71
  Q 100.70 21.31 107.53 25.45
  Q 116.40 30.81 116.37 41.74
  Q 116.32 62.26 116.37 82.75
  C 116.40 93.09 109.46 97.53 101.58 102.10
  Q 79.71 114.80 70.50 119.81
  Q 60.32 125.35 49.76 119.92
  Z
  M 45.28 95.21
  A 0.69 0.69 0.0 0 0 45.76 96.05
  L 54.19 98.36
  A 0.69 0.69 0.0 0 0 55.04 97.87
  L 73.66 28.78
  A 0.69 0.69 0.0 0 0 73.17 27.93
  L 64.72 25.70
  A 0.69 0.69 0.0 0 0 63.88 26.18
  L 45.28 95.21
  Z
  M 28.96 62.19
  Q 28.78 61.65 29.21 61.21
  Q 35.92 54.57 42.32 48.06
  A 0.91 0.91 0.0 0 0 42.30 46.75
  L 36.05 40.91
  A 0.63 0.62 -46.0 0 0 35.18 40.93
  L 15.16 61.32
  A 0.86 0.86 0.0 0 0 15.15 62.51
  L 34.79 82.92
  A 1.17 1.17 0.0 0 0 36.44 82.95
  L 42.03 77.55
  A 1.27 1.27 0.0 0 0 42.05 75.76
  L 29.09 62.42
  A 0.62 0.60 -75.2 0 1 28.96 62.19
  Z
  M 76.59 46.71
  A 0.85 0.85 0.0 0 0 76.56 47.93
  L 89.77 61.33
  A 0.85 0.85 0.0 0 1 89.77 62.52
  L 76.59 76.05
  A 0.85 0.85 0.0 0 0 76.61 77.26
  L 82.70 83.05
  A 0.85 0.85 0.0 0 0 83.90 83.02
  L 103.63 62.53
  A 0.85 0.85 0.0 0 0 103.63 61.35
  L 83.90 41.01
  A 0.85 0.85 0.0 0 0 82.71 40.98
  L 76.59 46.71
  Z"
/>
</svg>
