<?xml version="1.0" encoding="UTF-8" standalone="no"?>
<!DOCTYPE svg PUBLIC "-//W3C//DTD SVG 1.1//EN" "http://www.w3.org/Graphics/SVG/1.1/DTD/svg11.dtd">
<svg xmlns="http://www.w3.org/2000/svg" version="1.1" viewBox="0.00 0.00 561.00 144.00" width="561.00" height="144.00">
<path fill="#f14d58" d="
  M 68.09 126.98
  Q 55.11 119.75 35.41 108.32
  C 27.82 103.93 25.99 98.59 26.00 89.66
  Q 26.00 71.06 25.99 52.49
  C 25.99 44.08 28.13 38.65 35.28 34.50
  Q 51.06 25.35 66.93 16.35
  Q 74.96 11.79 79.21 11.11
  C 86.14 10.00 90.89 11.83 97.39 15.53
  Q 114.23 25.11 131.01 34.78
  Q 139.64 39.75 139.71 50.99
  Q 139.83 71.38 139.85 91.76
  C 139.86 101.68 134.52 105.95 125.85 110.96
  Q 101.02 125.32 94.10 129.12
  Q 87.28 132.87 79.86 131.78
  Q 75.56 131.15 68.09 126.98
  Z
  M 97.1126 37.9984
  A 0.51 0.51 0.0 0 0 96.7531 37.3731
  L 87.9673 35.0025
  A 0.51 0.51 0.0 0 0 87.3420 35.3621
  L 68.6274 104.7216
  A 0.51 0.51 0.0 0 0 68.9869 105.3469
  L 77.7727 107.7175
  A 0.51 0.51 0.0 0 0 78.3980 107.3579
  L 97.1126 37.9984
  Z
  M 65.83 86.43
  A 0.58 0.58 0.0 0 0 65.84 85.61
  L 52.34 71.61
  A 0.58 0.58 0.0 0 1 52.34 70.80
  L 65.93 57.20
  A 0.58 0.58 0.0 0 0 65.92 56.37
  L 59.38 50.22
  A 0.58 0.58 0.0 0 0 58.57 50.24
  L 38.41 70.82
  A 0.58 0.58 0.0 0 0 38.41 71.63
  L 58.58 92.66
  A 0.58 0.58 0.0 0 0 59.40 92.67
  L 65.83 86.43
  Z
  M 113.35 70.78
  A 0.63 0.63 0.0 0 1 113.35 71.66
  L 99.90 85.54
  A 0.63 0.63 0.0 0 0 99.92 86.44
  L 106.29 92.53
  A 0.63 0.63 0.0 0 0 107.18 92.52
  L 127.10 71.75
  A 0.63 0.63 0.0 0 0 127.10 70.87
  L 107.21 50.19
  A 0.63 0.63 0.0 0 0 106.33 50.17
  L 99.86 56.25
  A 0.63 0.63 0.0 0 0 99.84 57.15
  L 113.35 70.78
  Z"
/>
<path fill="#242d37" d="
  M 210.70 89.42
  Q 214.07 88.04 213.87 84.51
  C 213.72 81.76 211.29 80.58 209.00 79.80
  C 201.34 77.21 192.19 75.71 187.49 70.27
  C 180.89 62.65 184.87 51.50 192.94 46.45
  C 204.43 39.26 219.97 39.72 230.15 49.10
  Q 231.03 49.91 231.41 50.57
  A 1.41 1.40 -31.1 0 1 230.94 52.45
  L 223.24 57.29
  A 1.35 1.33 -39.1 0 1 221.60 57.13
  C 216.44 52.22 208.57 50.56 202.14 54.12
  C 197.66 56.60 199.00 61.57 203.40 62.92
  Q 211.62 65.43 219.75 68.15
  C 230.57 71.78 232.29 83.20 226.09 91.78
  C 219.64 100.73 205.25 102.46 194.52 100.71
  Q 184.05 99.01 178.47 90.55
  A 1.74 1.73 -32.1 0 1 179.03 88.11
  L 186.68 83.57
  A 1.30 1.28 46.0 0 1 188.03 83.60
  Q 189.73 84.73 191.28 86.47
  C 195.96 91.75 205.02 91.75 210.70 89.42
  Z"
/>
<path fill="#242d37" d="
  M 406.27 53.70
  C 400.36 56.65 402.36 61.05 407.53 62.87
  Q 415.38 65.62 423.25 68.14
  C 429.88 70.26 433.66 75.47 433.04 82.54
  C 432.07 93.43 421.81 99.80 411.74 100.85
  C 400.44 102.02 387.91 100.90 381.62 90.08
  A 1.10 1.09 -33.8 0 1 381.91 88.66
  Q 385.26 86.12 389.14 84.15
  Q 390.94 83.23 392.04 84.22
  Q 394.28 86.22 396.48 88.25
  C 400.37 91.82 418.30 92.97 417.00 83.76
  C 416.62 81.06 413.21 80.01 410.96 79.41
  Q 405.75 78.02 400.72 76.11
  C 393.02 73.19 387.26 69.37 387.65 60.74
  C 388.10 50.75 396.47 44.40 405.68 42.38
  C 415.50 40.23 427.32 42.27 434.39 50.07
  Q 435.74 51.55 434.04 52.62
  L 426.55 57.35
  A 1.27 1.26 50.4 0 1 425.00 57.20
  C 420.18 52.60 412.44 50.62 406.27 53.70
  Z"
/>
<path fill="#242d37" d="
  M 304.58 68.06
  L 300.17 68.30
  Q 298.69 68.38 298.89 66.92
  L 299.74 60.62
  Q 299.96 58.96 301.64 58.83
  L 306.46 58.45
  A 1.06 1.06 0.0 0 0 307.44 57.45
  C 308.30 41.65 318.42 41.78 331.02 42.27
  Q 332.48 42.33 332.32 43.78
  L 331.66 50.06
  A 1.61 1.60 5.0 0 1 329.95 51.49
  Q 327.26 51.29 324.72 51.93
  Q 322.42 52.50 321.90 54.81
  L 321.50 56.59
  Q 320.98 58.90 323.34 58.85
  L 328.45 58.75
  Q 329.94 58.72 329.73 60.20
  L 328.78 66.99
  A 1.50 1.49 -85.2 0 1 327.27 68.28
  L 321.24 68.16
  A 0.99 0.99 0.0 0 0 320.25 69.01
  L 315.81 99.30
  A 1.38 1.38 0.0 0 1 314.46 100.48
  L 303.04 100.62
  A 1.41 1.41 0.0 0 1 301.63 99.01
  L 305.76 69.35
  A 1.13 1.13 0.0 0 0 304.58 68.06
  Z"
/>
<path fill="#242d37" d="
  M 501.33 98.47
  L 509.54 43.82
  A 1.74 1.74 0.0 0 1 511.25 42.34
  L 521.81 42.25
  A 1.74 1.74 0.0 0 1 523.54 44.23
  L 515.69 98.99
  A 1.74 1.74 0.0 0 1 513.97 100.48
  L 503.05 100.47
  A 1.74 1.74 0.0 0 1 501.33 98.47
  Z"
/>
<path fill="#242d37" d="
  M 362.97 57.83
  A 0.87 0.87 0.0 0 0 363.84 58.84
  L 371.78 58.78
  Q 373.32 58.77 373.12 60.29
  L 372.26 66.75
  A 1.75 1.75 0.0 0 1 370.51 68.27
  L 362.27 68.18
  A 1.19 1.19 0.0 0 0 361.08 69.21
  Q 359.85 78.10 358.53 87.25
  C 357.89 91.68 363.05 90.81 366.19 90.76
  Q 368.73 90.72 368.35 93.24
  L 367.68 97.73
  Q 367.31 100.16 364.86 100.34
  C 356.02 101.02 341.89 101.74 343.95 88.27
  Q 345.36 79.06 346.83 69.79
  Q 347.09 68.13 345.42 68.18
  L 341.42 68.29
  Q 339.75 68.33 339.96 66.67
  L 340.77 60.50
  Q 341.00 58.75 342.76 58.76
  L 347.24 58.80
  A 1.67 1.66 -83.0 0 0 348.87 57.52
  L 351.65 46.22
  A 1.93 1.92 -83.1 0 1 353.52 44.75
  L 363.42 44.77
  A 1.44 1.43 4.7 0 1 364.84 46.44
  L 362.97 57.83
  Z"
/>
<path fill="#242d37" d="
  M 282.5507 64.6539
  A 23.34 20.73 -40.3 0 1 278.1580 95.5601
  A 23.34 20.73 -40.3 0 1 246.9493 94.8461
  A 23.34 20.73 -40.3 0 1 251.3420 63.9399
  A 23.34 20.73 -40.3 0 1 282.5507 64.6539
  Z
  M 261.2775 92.3810
  A 13.34 7.69 105.4 0 0 272.2339 81.5621
  A 13.34 7.69 105.4 0 0 268.3625 66.6590
  A 13.34 7.69 105.4 0 0 257.4061 77.4779
  A 13.34 7.69 105.4 0 0 261.2775 92.3810
  Z"
/>
<path fill="#242d37" d="
  M 485.8538 64.5374
  A 23.33 20.75 -40.6 0 1 481.6436 95.4749
  A 23.33 20.75 -40.6 0 1 450.4262 94.9026
  A 23.33 20.75 -40.6 0 1 454.6364 63.9651
  A 23.33 20.75 -40.6 0 1 485.8538 64.5374
  Z
  M 464.5818 92.2853
  A 13.26 7.60 105.7 0 0 475.4865 81.5766
  A 13.26 7.60 105.7 0 0 471.7582 66.7547
  A 13.26 7.60 105.7 0 0 460.8535 77.4634
  A 13.26 7.60 105.7 0 0 464.5818 92.2853
  Z"
/>
</svg>
