<?xml version="1.0" encoding="UTF-8" standalone="no"?>
<!DOCTYPE svg PUBLIC "-//W3C//DTD SVG 1.1//EN" "http://www.w3.org/Graphics/SVG/1.1/DTD/svg11.dtd">
<svg xmlns="http://www.w3.org/2000/svg" version="1.1" viewBox="0.00 0.00 561.00 144.00">
<g stroke-width="2.00" fill="none" stroke-linecap="butt">
<path stroke="#f69e9e" vector-effect="non-scaling-stroke" d="
  M 72.49 129.53
  C 76.73 131.92 82.56 132.44 87.11 131.60
  Q 90.90 130.90 97.96 126.91
  Q 112.84 118.49 127.62 109.91
  C 134.57 105.87 139.74 101.09 139.74 93.26
  Q 139.76 72.26 139.82 51.24
  Q 139.85 44.44 136.16 39.51
  Q 133.90 36.47 127.01 32.48
  Q 112.62 24.14 98.14 15.96
  Q 90.59 11.69 86.33 10.97
  Q 78.60 9.66 71.76 13.56
  Q 55.06 23.07 38.42 32.64
  C 31.27 36.76 25.97 41.16 25.98 49.24
  Q 25.99 71.11 25.98 93.01
  C 25.98 101.35 30.66 105.58 37.98 109.83
  Q 55.16 119.79 72.49 129.53"
/>
<path stroke="#8f9091" vector-effect="non-scaling-stroke" d="
  M 193.45 74.58
  Q 196.93 76.05 208.76 79.66
  C 211.14 80.39 213.54 81.61 213.79 84.39
  C 214.55 92.79 196.95 91.83 192.80 87.96
  Q 190.61 85.92 188.93 84.04
  A 1.96 1.95 53.5 0 0 186.47 83.67
  L 178.94 88.17
  A 1.67 1.67 0.0 0 0 178.41 90.54
  Q 183.48 98.06 192.08 100.15
  C 205.03 103.30 225.05 100.77 229.03 85.41
  C 230.77 78.66 228.52 71.86 221.94 69.03
  Q 217.40 67.09 204.52 63.19
  C 197.15 60.95 198.29 54.21 204.99 52.74
  Q 214.75 50.60 221.71 57.24
  A 1.14 1.14 0.0 0 0 223.10 57.38
  L 230.75 52.54
  Q 232.52 51.42 231.05 49.93
  Q 224.16 42.93 214.51 41.77
  C 205.13 40.64 193.75 43.43 187.77 50.85
  C 181.45 58.68 183.53 70.40 193.45 74.58"
/>
<path stroke="#8f9091" vector-effect="non-scaling-stroke" d="
  M 403.73 60.88
  C 401.44 57.86 403.72 54.29 406.79 53.26
  Q 417.15 49.78 425.31 57.41
  A 0.76 0.75 50.0 0 0 426.25 57.50
  L 434.66 52.17
  A 1.06 1.05 53.1 0 0 434.88 50.57
  C 428.99 43.95 420.61 41.11 411.91 41.59
  C 401.04 42.19 387.46 48.32 387.56 61.22
  C 387.62 68.84 392.63 73.39 399.62 75.61
  Q 406.42 77.77 413.19 80.02
  C 418.65 81.83 418.46 87.94 413.25 89.68
  Q 400.29 93.99 392.35 84.16
  A 2.03 2.03 0.0 0 0 389.73 83.70
  L 381.96 88.38
  A 1.17 1.16 -30.5 0 0 381.55 89.95
  Q 385.46 96.84 393.24 99.50
  C 406.39 103.99 429.99 101.24 432.88 83.46
  C 434.51 73.48 427.60 69.55 418.92 66.76
  C 415.55 65.68 405.63 63.38 403.73 60.88"
/>
<path stroke="#8f9091" vector-effect="non-scaling-stroke" d="
  M 321.00 68.25
  L 327.89 68.25
  A 0.73 0.72 4.1 0 0 328.61 67.63
  L 329.81 59.87
  Q 329.98 58.76 328.86 58.76
  L 322.25 58.74
  Q 321.67 58.74 321.59 58.17
  C 320.60 51.32 326.06 51.48 330.83 51.49
  A 0.63 0.62 -86.3 0 0 331.45 50.94
  L 332.40 43.35
  A 0.91 0.91 0.0 0 0 331.53 42.33
  C 324.35 42.08 315.08 40.99 310.43 47.18
  C 308.38 49.90 307.98 53.87 307.63 57.31
  A 1.59 1.59 0.0 0 1 306.06 58.74
  L 300.62 58.78
  A 0.73 0.73 0.0 0 0 299.90 59.41
  L 298.88 67.25
  Q 298.75 68.24 299.75 68.24
  L 305.39 68.26
  Q 306.04 68.26 305.95 68.89
  L 301.59 98.80
  A 1.49 1.48 4.2 0 0 303.06 100.50
  L 315.05 100.50
  Q 315.59 100.50 315.67 99.95
  L 320.29 68.86
  A 0.72 0.71 4.2 0 1 321.00 68.25"
/>
<path stroke="#8f9091" vector-effect="non-scaling-stroke" d="
  M 510.95 42.25
  A 1.34 1.34 0.0 0 0 509.63 43.39
  L 501.31 98.96
  A 1.34 1.34 0.0 0 0 502.64 100.50
  L 514.31 100.49
  A 1.34 1.34 0.0 0 0 515.64 99.34
  L 523.65 43.78
  A 1.34 1.34 0.0 0 0 522.32 42.25
  L 510.95 42.25"
/>
<path stroke="#8f9091" vector-effect="non-scaling-stroke" d="
  M 346.72 68.94
  Q 345.61 79.41 343.96 89.78
  C 342.00 102.06 358.00 100.63 365.06 100.42
  A 2.59 2.57 3.6 0 0 367.54 98.25
  L 368.44 92.61
  A 1.62 1.60 4.7 0 0 366.85 90.75
  L 361.12 90.74
  A 2.74 2.74 0.0 0 1 358.41 87.60
  L 361.16 68.98
  A 0.85 0.84 3.9 0 1 362.00 68.25
  L 371.48 68.25
  Q 371.96 68.25 372.03 67.77
  L 373.22 59.56
  A 0.69 0.69 0.0 0 0 372.55 58.77
  L 363.58 58.73
  A 0.58 0.57 4.3 0 1 363.01 58.07
  L 364.87 45.76
  A 0.88 0.88 0.0 0 0 364.00 44.75
  L 353.05 44.75
  A 1.26 1.26 0.0 0 0 351.83 45.70
  L 348.68 58.04
  Q 348.50 58.74 347.77 58.74
  L 341.49 58.77
  Q 341.00 58.77 340.94 59.26
  L 339.88 67.64
  A 0.53 0.53 0.0 0 0 340.40 68.24
  L 346.13 68.27
  Q 346.79 68.28 346.72 68.94"
/>
<path stroke="#8f9091" vector-effect="non-scaling-stroke" d="
  M 253.20 99.58
  C 266.82 105.01 282.07 97.77 286.04 83.61
  C 289.56 71.07 282.75 58.88 269.03 58.18
  Q 254.37 57.43 246.54 69.42
  C 240.13 79.21 241.09 94.75 253.20 99.58"
/>
<path stroke="#8f9091" vector-effect="non-scaling-stroke" d="
  M 488.08 87.05
  C 491.42 80.00 490.94 70.89 486.18 64.70
  C 478.90 55.23 463.13 56.69 454.97 63.59
  C 438.67 77.35 444.66 103.64 469.00 101.17
  Q 482.01 99.85 488.08 87.05"
/>
<path stroke="#f69e9e" vector-effect="non-scaling-stroke" d="
  M 97.1384 37.8078
  A 0.26 0.26 0.0 0 0 96.9551 37.4891
  L 87.7445 35.0038
  A 0.26 0.26 0.0 0 0 87.4257 35.1871
  L 68.6016 104.9522
  A 0.26 0.26 0.0 0 0 68.7849 105.2709
  L 77.9955 107.7562
  A 0.26 0.26 0.0 0 0 78.3143 107.5729
  L 97.1384 37.8078"
/>
<path stroke="#f69e9e" vector-effect="non-scaling-stroke" d="
  M 113.53 71.00
  A 0.33 0.33 0.0 0 1 113.53 71.46
  L 99.70 85.72
  A 0.33 0.33 0.0 0 0 99.71 86.19
  L 106.52 92.74
  A 0.33 0.33 0.0 0 0 106.99 92.73
  L 127.26 71.49
  A 0.33 0.33 0.0 0 0 127.26 71.03
  L 107.02 49.97
  A 0.33 0.33 0.0 0 0 106.55 49.96
  L 99.73 56.43
  A 0.33 0.33 0.0 0 0 99.72 56.90
  L 113.53 71.00"
/>
<path stroke="#f69e9e" vector-effect="non-scaling-stroke" d="
  M 52.25 71.44
  A 0.39 0.39 0.0 0 1 52.26 70.90
  L 65.99 57.03
  A 0.39 0.39 0.0 0 0 65.98 56.48
  L 59.28 50.09
  A 0.39 0.39 0.0 0 0 58.73 50.10
  L 38.23 70.94
  A 0.39 0.39 0.0 0 0 38.22 71.48
  L 58.72 92.76
  A 0.39 0.39 0.0 0 0 59.27 92.76
  L 65.91 86.25
  A 0.39 0.39 0.0 0 0 65.91 85.70
  L 52.25 71.44"
/>
<path stroke="#8f9091" vector-effect="non-scaling-stroke" d="
  M 260.75 91.97
  C 271.80 95.30 276.24 71.44 270.31 67.65
  C 265.31 64.46 260.12 69.77 258.51 74.25
  C 256.94 78.66 254.42 90.06 260.75 91.97"
/>
<path stroke="#8f9091" vector-effect="non-scaling-stroke" d="
  M 462.44 72.95
  C 460.57 77.24 458.43 86.62 461.76 90.60
  Q 463.82 93.06 467.50 92.18
  Q 472.07 91.08 474.16 85.85
  C 475.76 81.86 477.71 71.72 474.50 68.20
  C 470.54 63.87 464.13 69.06 462.44 72.95"
/>
</g>
<path fill="#f8f8f9" d="
  M 0.00 0.00
  L 561.00 0.00
  L 561.00 144.00
  L 0.00 144.00
  L 0.00 0.00
  Z
  M 72.49 129.53
  C 76.73 131.92 82.56 132.44 87.11 131.60
  Q 90.90 130.90 97.96 126.91
  Q 112.84 118.49 127.62 109.91
  C 134.57 105.87 139.74 101.09 139.74 93.26
  Q 139.76 72.26 139.82 51.24
  Q 139.85 44.44 136.16 39.51
  Q 133.90 36.47 127.01 32.48
  Q 112.62 24.14 98.14 15.96
  Q 90.59 11.69 86.33 10.97
  Q 78.60 9.66 71.76 13.56
  Q 55.06 23.07 38.42 32.64
  C 31.27 36.76 25.97 41.16 25.98 49.24
  Q 25.99 71.11 25.98 93.01
  C 25.98 101.35 30.66 105.58 37.98 109.83
  Q 55.16 119.79 72.49 129.53
  Z
  M 193.45 74.58
  Q 196.93 76.05 208.76 79.66
  C 211.14 80.39 213.54 81.61 213.79 84.39
  C 214.55 92.79 196.95 91.83 192.80 87.96
  Q 190.61 85.92 188.93 84.04
  A 1.96 1.95 53.5 0 0 186.47 83.67
  L 178.94 88.17
  A 1.67 1.67 0.0 0 0 178.41 90.54
  Q 183.48 98.06 192.08 100.15
  C 205.03 103.30 225.05 100.77 229.03 85.41
  C 230.77 78.66 228.52 71.86 221.94 69.03
  Q 217.40 67.09 204.52 63.19
  C 197.15 60.95 198.29 54.21 204.99 52.74
  Q 214.75 50.60 221.71 57.24
  A 1.14 1.14 0.0 0 0 223.10 57.38
  L 230.75 52.54
  Q 232.52 51.42 231.05 49.93
  Q 224.16 42.93 214.51 41.77
  C 205.13 40.64 193.75 43.43 187.77 50.85
  C 181.45 58.68 183.53 70.40 193.45 74.58
  Z
  M 403.73 60.88
  C 401.44 57.86 403.72 54.29 406.79 53.26
  Q 417.15 49.78 425.31 57.41
  A 0.76 0.75 50.0 0 0 426.25 57.50
  L 434.66 52.17
  A 1.06 1.05 53.1 0 0 434.88 50.57
  C 428.99 43.95 420.61 41.11 411.91 41.59
  C 401.04 42.19 387.46 48.32 387.56 61.22
  C 387.62 68.84 392.63 73.39 399.62 75.61
  Q 406.42 77.77 413.19 80.02
  C 418.65 81.83 418.46 87.94 413.25 89.68
  Q 400.29 93.99 392.35 84.16
  A 2.03 2.03 0.0 0 0 389.73 83.70
  L 381.96 88.38
  A 1.17 1.16 -30.5 0 0 381.55 89.95
  Q 385.46 96.84 393.24 99.50
  C 406.39 103.99 429.99 101.24 432.88 83.46
  C 434.51 73.48 427.60 69.55 418.92 66.76
  C 415.55 65.68 405.63 63.38 403.73 60.88
  Z
  M 321.00 68.25
  L 327.89 68.25
  A 0.73 0.72 4.1 0 0 328.61 67.63
  L 329.81 59.87
  Q 329.98 58.76 328.86 58.76
  L 322.25 58.74
  Q 321.67 58.74 321.59 58.17
  C 320.60 51.32 326.06 51.48 330.83 51.49
  A 0.63 0.62 -86.3 0 0 331.45 50.94
  L 332.40 43.35
  A 0.91 0.91 0.0 0 0 331.53 42.33
  C 324.35 42.08 315.08 40.99 310.43 47.18
  C 308.38 49.90 307.98 53.87 307.63 57.31
  A 1.59 1.59 0.0 0 1 306.06 58.74
  L 300.62 58.78
  A 0.73 0.73 0.0 0 0 299.90 59.41
  L 298.88 67.25
  Q 298.75 68.24 299.75 68.24
  L 305.39 68.26
  Q 306.04 68.26 305.95 68.89
  L 301.59 98.80
  A 1.49 1.48 4.2 0 0 303.06 100.50
  L 315.05 100.50
  Q 315.59 100.50 315.67 99.95
  L 320.29 68.86
  A 0.72 0.71 4.2 0 1 321.00 68.25
  Z
  M 510.95 42.25
  A 1.34 1.34 0.0 0 0 509.63 43.39
  L 501.31 98.96
  A 1.34 1.34 0.0 0 0 502.64 100.50
  L 514.31 100.49
  A 1.34 1.34 0.0 0 0 515.64 99.34
  L 523.65 43.78
  A 1.34 1.34 0.0 0 0 522.32 42.25
  L 510.95 42.25
  Z
  M 346.72 68.94
  Q 345.61 79.41 343.96 89.78
  C 342.00 102.06 358.00 100.63 365.06 100.42
  A 2.59 2.57 3.6 0 0 367.54 98.25
  L 368.44 92.61
  A 1.62 1.60 4.7 0 0 366.85 90.75
  L 361.12 90.74
  A 2.74 2.74 0.0 0 1 358.41 87.60
  L 361.16 68.98
  A 0.85 0.84 3.9 0 1 362.00 68.25
  L 371.48 68.25
  Q 371.96 68.25 372.03 67.77
  L 373.22 59.56
  A 0.69 0.69 0.0 0 0 372.55 58.77
  L 363.58 58.73
  A 0.58 0.57 4.3 0 1 363.01 58.07
  L 364.87 45.76
  A 0.88 0.88 0.0 0 0 364.00 44.75
  L 353.05 44.75
  A 1.26 1.26 0.0 0 0 351.83 45.70
  L 348.68 58.04
  Q 348.50 58.74 347.77 58.74
  L 341.49 58.77
  Q 341.00 58.77 340.94 59.26
  L 339.88 67.64
  A 0.53 0.53 0.0 0 0 340.40 68.24
  L 346.13 68.27
  Q 346.79 68.28 346.72 68.94
  Z
  M 253.20 99.58
  C 266.82 105.01 282.07 97.77 286.04 83.61
  C 289.56 71.07 282.75 58.88 269.03 58.18
  Q 254.37 57.43 246.54 69.42
  C 240.13 79.21 241.09 94.75 253.20 99.58
  Z
  M 488.08 87.05
  C 491.42 80.00 490.94 70.89 486.18 64.70
  C 478.90 55.23 463.13 56.69 454.97 63.59
  C 438.67 77.35 444.66 103.64 469.00 101.17
  Q 482.01 99.85 488.08 87.05
  Z"
/>
<path fill="#f34343" d="
  M 87.11 131.60
  C 82.56 132.44 76.73 131.92 72.49 129.53
  Q 55.16 119.79 37.98 109.83
  C 30.66 105.58 25.98 101.35 25.98 93.01
  Q 25.99 71.11 25.98 49.24
  C 25.97 41.16 31.27 36.76 38.42 32.64
  Q 55.06 23.07 71.76 13.56
  Q 78.60 9.66 86.33 10.97
  Q 90.59 11.69 98.14 15.96
  Q 112.62 24.14 127.01 32.48
  Q 133.90 36.47 136.16 39.51
  Q 139.85 44.44 139.82 51.24
  Q 139.76 72.26 139.74 93.26
  C 139.74 101.09 134.57 105.87 127.62 109.91
  Q 112.84 118.49 97.96 126.91
  Q 90.90 130.90 87.11 131.60
  Z
  M 97.1384 37.8078
  A 0.26 0.26 0.0 0 0 96.9551 37.4891
  L 87.7445 35.0038
  A 0.26 0.26 0.0 0 0 87.4257 35.1871
  L 68.6016 104.9522
  A 0.26 0.26 0.0 0 0 68.7849 105.2709
  L 77.9955 107.7562
  A 0.26 0.26 0.0 0 0 78.3143 107.5729
  L 97.1384 37.8078
  Z
  M 113.53 71.00
  A 0.33 0.33 0.0 0 1 113.53 71.46
  L 99.70 85.72
  A 0.33 0.33 0.0 0 0 99.71 86.19
  L 106.52 92.74
  A 0.33 0.33 0.0 0 0 106.99 92.73
  L 127.26 71.49
  A 0.33 0.33 0.0 0 0 127.26 71.03
  L 107.02 49.97
  A 0.33 0.33 0.0 0 0 106.55 49.96
  L 99.73 56.43
  A 0.33 0.33 0.0 0 0 99.72 56.90
  L 113.53 71.00
  Z
  M 52.25 71.44
  A 0.39 0.39 0.0 0 1 52.26 70.90
  L 65.99 57.03
  A 0.39 0.39 0.0 0 0 65.98 56.48
  L 59.28 50.09
  A 0.39 0.39 0.0 0 0 58.73 50.10
  L 38.23 70.94
  A 0.39 0.39 0.0 0 0 38.22 71.48
  L 58.72 92.76
  A 0.39 0.39 0.0 0 0 59.27 92.76
  L 65.91 86.25
  A 0.39 0.39 0.0 0 0 65.91 85.70
  L 52.25 71.44
  Z"
/>
<rect fill="#f8f8f9" x="-5.03" y="-36.39" transform="translate(82.87,71.38) rotate(15.1)" width="10.06" height="72.78" rx="0.26"/>
<path fill="#252829" d="
  M 193.45 74.58
  C 183.53 70.40 181.45 58.68 187.77 50.85
  C 193.75 43.43 205.13 40.64 214.51 41.77
  Q 224.16 42.93 231.05 49.93
  Q 232.52 51.42 230.75 52.54
  L 223.10 57.38
  A 1.14 1.14 0.0 0 1 221.71 57.24
  Q 214.75 50.60 204.99 52.74
  C 198.29 54.21 197.15 60.95 204.52 63.19
  Q 217.40 67.09 221.94 69.03
  C 228.52 71.86 230.77 78.66 229.03 85.41
  C 225.05 100.77 205.03 103.30 192.08 100.15
  Q 183.48 98.06 178.41 90.54
  A 1.67 1.67 0.0 0 1 178.94 88.17
  L 186.47 83.67
  A 1.96 1.95 53.5 0 1 188.93 84.04
  Q 190.61 85.92 192.80 87.96
  C 196.95 91.83 214.55 92.79 213.79 84.39
  C 213.54 81.61 211.14 80.39 208.76 79.66
  Q 196.93 76.05 193.45 74.58
  Z"
/>
<path fill="#252829" d="
  M 403.73 60.88
  C 405.63 63.38 415.55 65.68 418.92 66.76
  C 427.60 69.55 434.51 73.48 432.88 83.46
  C 429.99 101.24 406.39 103.99 393.24 99.50
  Q 385.46 96.84 381.55 89.95
  A 1.17 1.16 -30.5 0 1 381.96 88.38
  L 389.73 83.70
  A 2.03 2.03 0.0 0 1 392.35 84.16
  Q 400.29 93.99 413.25 89.68
  C 418.46 87.94 418.65 81.83 413.19 80.02
  Q 406.42 77.77 399.62 75.61
  C 392.63 73.39 387.62 68.84 387.56 61.22
  C 387.46 48.32 401.04 42.19 411.91 41.59
  C 420.61 41.11 428.99 43.95 434.88 50.57
  A 1.06 1.05 53.1 0 1 434.66 52.17
  L 426.25 57.50
  A 0.76 0.75 50.0 0 1 425.31 57.41
  Q 417.15 49.78 406.79 53.26
  C 403.72 54.29 401.44 57.86 403.73 60.88
  Z"
/>
<path fill="#252829" d="
  M 320.29 68.86
  L 315.67 99.95
  Q 315.59 100.50 315.05 100.50
  L 303.06 100.50
  A 1.49 1.48 4.2 0 1 301.59 98.80
  L 305.95 68.89
  Q 306.04 68.26 305.39 68.26
  L 299.75 68.24
  Q 298.75 68.24 298.88 67.25
  L 299.90 59.41
  A 0.73 0.73 0.0 0 1 300.62 58.78
  L 306.06 58.74
  A 1.59 1.59 0.0 0 0 307.63 57.31
  C 307.98 53.87 308.38 49.90 310.43 47.18
  C 315.08 40.99 324.35 42.08 331.53 42.33
  A 0.91 0.91 0.0 0 1 332.40 43.35
  L 331.45 50.94
  A 0.63 0.62 -86.3 0 1 330.83 51.49
  C 326.06 51.48 320.60 51.32 321.59 58.17
  Q 321.67 58.74 322.25 58.74
  L 328.86 58.76
  Q 329.98 58.76 329.81 59.87
  L 328.61 67.63
  A 0.73 0.72 4.1 0 1 327.89 68.25
  L 321.00 68.25
  A 0.72 0.71 4.2 0 0 320.29 68.86
  Z"
/>
<path fill="#252829" d="
  M 510.95 42.25
  L 522.32 42.25
  A 1.34 1.34 0.0 0 1 523.65 43.78
  L 515.64 99.34
  A 1.34 1.34 0.0 0 1 514.31 100.49
  L 502.64 100.50
  A 1.34 1.34 0.0 0 1 501.31 98.96
  L 509.63 43.39
  A 1.34 1.34 0.0 0 1 510.95 42.25
  Z"
/>
<path fill="#252829" d="
  M 346.13 68.27
  L 340.40 68.24
  A 0.53 0.53 0.0 0 1 339.88 67.64
  L 340.94 59.26
  Q 341.00 58.77 341.49 58.77
  L 347.77 58.74
  Q 348.50 58.74 348.68 58.04
  L 351.83 45.70
  A 1.26 1.26 0.0 0 1 353.05 44.75
  L 364.00 44.75
  A 0.88 0.88 0.0 0 1 364.87 45.76
  L 363.01 58.07
  A 0.58 0.57 4.3 0 0 363.58 58.73
  L 372.55 58.77
  A 0.69 0.69 0.0 0 1 373.22 59.56
  L 372.03 67.77
  Q 371.96 68.25 371.48 68.25
  L 362.00 68.25
  A 0.85 0.84 3.9 0 0 361.16 68.98
  L 358.41 87.60
  A 2.74 2.74 0.0 0 0 361.12 90.74
  L 366.85 90.75
  A 1.62 1.60 4.7 0 1 368.44 92.61
  L 367.54 98.25
  A 2.59 2.57 3.6 0 1 365.06 100.42
  C 358.00 100.63 342.00 102.06 343.96 89.78
  Q 345.61 79.41 346.72 68.94
  Q 346.79 68.28 346.13 68.27
  Z"
/>
<path fill="#f8f8f9" d="
  M 113.53 71.00
  L 99.72 56.90
  A 0.33 0.33 0.0 0 1 99.73 56.43
  L 106.55 49.96
  A 0.33 0.33 0.0 0 1 107.02 49.97
  L 127.26 71.03
  A 0.33 0.33 0.0 0 1 127.26 71.49
  L 106.99 92.73
  A 0.33 0.33 0.0 0 1 106.52 92.74
  L 99.71 86.19
  A 0.33 0.33 0.0 0 1 99.70 85.72
  L 113.53 71.46
  A 0.33 0.33 0.0 0 0 113.53 71.00
  Z"
/>
<path fill="#f8f8f9" d="
  M 52.25 71.44
  L 65.91 85.70
  A 0.39 0.39 0.0 0 1 65.91 86.25
  L 59.27 92.76
  A 0.39 0.39 0.0 0 1 58.72 92.76
  L 38.22 71.48
  A 0.39 0.39 0.0 0 1 38.23 70.94
  L 58.73 50.10
  A 0.39 0.39 0.0 0 1 59.28 50.09
  L 65.98 56.48
  A 0.39 0.39 0.0 0 1 65.99 57.03
  L 52.26 70.90
  A 0.39 0.39 0.0 0 0 52.25 71.44
  Z"
/>
<path fill="#252829" d="
  M 253.20 99.58
  C 241.09 94.75 240.13 79.21 246.54 69.42
  Q 254.37 57.43 269.03 58.18
  C 282.75 58.88 289.56 71.07 286.04 83.61
  C 282.07 97.77 266.82 105.01 253.20 99.58
  Z
  M 260.75 91.97
  C 271.80 95.30 276.24 71.44 270.31 67.65
  C 265.31 64.46 260.12 69.77 258.51 74.25
  C 256.94 78.66 254.42 90.06 260.75 91.97
  Z"
/>
<path fill="#252829" d="
  M 488.08 87.05
  Q 482.01 99.85 469.00 101.17
  C 444.66 103.64 438.67 77.35 454.97 63.59
  C 463.13 56.69 478.90 55.23 486.18 64.70
  C 490.94 70.89 491.42 80.00 488.08 87.05
  Z
  M 462.44 72.95
  C 460.57 77.24 458.43 86.62 461.76 90.60
  Q 463.82 93.06 467.50 92.18
  Q 472.07 91.08 474.16 85.85
  C 475.76 81.86 477.71 71.72 474.50 68.20
  C 470.54 63.87 464.13 69.06 462.44 72.95
  Z"
/>
<path fill="#f8f8f9" d="
  M 270.31 67.65
  C 276.24 71.44 271.80 95.30 260.75 91.97
  C 254.42 90.06 256.94 78.66 258.51 74.25
  C 260.12 69.77 265.31 64.46 270.31 67.65
  Z"
/>
<path fill="#f8f8f9" d="
  M 462.44 72.95
  C 464.13 69.06 470.54 63.87 474.50 68.20
  C 477.71 71.72 475.76 81.86 474.16 85.85
  Q 472.07 91.08 467.50 92.18
  Q 463.82 93.06 461.76 90.60
  C 458.43 86.62 460.57 77.24 462.44 72.95
  Z"
/>
</svg>
