<?xml version="1.0" encoding="UTF-8" standalone="no"?>
<!DOCTYPE svg PUBLIC "-//W3C//DTD SVG 1.1//EN" "http://www.w3.org/Graphics/SVG/1.1/DTD/svg11.dtd">
<svg xmlns="http://www.w3.org/2000/svg" version="1.1" viewBox="0.00 0.00 228.00 272.00" width="228.00" height="272.00">
<g stroke-width="2.00" fill="none" stroke-linecap="butt">
<path stroke="#797a7b" vector-effect="non-scaling-stroke" d="
  M 174.87 70.66
  A 61.70 61.70 0.0 0 0 113.17 8.96
  A 61.70 61.70 0.0 0 0 51.47 70.66
  A 61.70 61.70 0.0 0 0 113.17 132.36
  A 61.70 61.70 0.0 0 0 174.87 70.66"
/>
<path stroke="#797a7b" vector-effect="non-scaling-stroke" d="
  M 90.58 146.61
  C 83.82 143.60 77.71 139.01 71.38 135.16
  C 67.76 132.96 64.75 132.34 60.73 132.68
  C 19.38 136.23 8.87 180.31 8.06 214.21
  Q 7.76 226.78 9.62 234.07
  C 14.76 254.25 32.53 264.91 52.75 264.94
  Q 111.56 265.01 170.36 264.98
  C 183.08 264.98 192.31 264.35 202.01 258.48
  Q 217.19 249.29 220.50 230.96
  Q 221.74 224.09 221.38 213.51
  C 220.33 182.76 211.46 139.85 174.80 133.54
  C 168.89 132.52 163.25 131.83 158.60 134.80
  Q 151.68 139.22 144.74 143.38
  Q 118.57 159.06 90.58 146.61"
/>
<path stroke="#797a7b" vector-effect="non-scaling-stroke" d="
  M 159.89 70.66
  A 46.71 46.71 0.0 0 0 113.18 23.95
  A 46.71 46.71 0.0 0 0 66.47 70.66
  A 46.71 46.71 0.0 0 0 113.18 117.37
  A 46.71 46.71 0.0 0 0 159.89 70.66"
/>
<path stroke="#797a7b" vector-effect="non-scaling-stroke" d="
  M 178.23 249.88
  C 192.10 249.84 205.31 240.77 206.28 226.26
  Q 207.63 205.98 202.61 184.48
  C 198.31 166.01 187.70 148.17 166.49 147.79
  Q 166.01 147.78 165.61 148.04
  Q 152.82 156.52 149.18 158.43
  Q 117.43 175.13 84.94 160.59
  C 78.03 157.49 70.79 152.54 63.95 148.09
  Q 63.57 147.85 63.12 147.85
  C 28.57 148.33 23.08 194.38 22.93 219.25
  Q 22.78 242.92 42.16 248.48
  Q 47.47 250.00 60.00 250.00
  Q 119.13 250.03 178.23 249.88"
/>
</g>
<path fill="#f1f3f5" d="
  M 0.00 0.00
  L 228.00 0.00
  L 228.00 272.00
  L 0.00 272.00
  L 0.00 0.00
  Z
  M 174.87 70.66
  A 61.70 61.70 0.0 0 0 113.17 8.96
  A 61.70 61.70 0.0 0 0 51.47 70.66
  A 61.70 61.70 0.0 0 0 113.17 132.36
  A 61.70 61.70 0.0 0 0 174.87 70.66
  Z
  M 90.58 146.61
  C 83.82 143.60 77.71 139.01 71.38 135.16
  C 67.76 132.96 64.75 132.34 60.73 132.68
  C 19.38 136.23 8.87 180.31 8.06 214.21
  Q 7.76 226.78 9.62 234.07
  C 14.76 254.25 32.53 264.91 52.75 264.94
  Q 111.56 265.01 170.36 264.98
  C 183.08 264.98 192.31 264.35 202.01 258.48
  Q 217.19 249.29 220.50 230.96
  Q 221.74 224.09 221.38 213.51
  C 220.33 182.76 211.46 139.85 174.80 133.54
  C 168.89 132.52 163.25 131.83 158.60 134.80
  Q 151.68 139.22 144.74 143.38
  Q 118.57 159.06 90.58 146.61
  Z"
/>
<path fill="#000000" d="
  M 174.87 70.66
  A 61.70 61.70 0.0 0 1 113.17 132.36
  A 61.70 61.70 0.0 0 1 51.47 70.66
  A 61.70 61.70 0.0 0 1 113.17 8.96
  A 61.70 61.70 0.0 0 1 174.87 70.66
  Z
  M 159.89 70.66
  A 46.71 46.71 0.0 0 0 113.18 23.95
  A 46.71 46.71 0.0 0 0 66.47 70.66
  A 46.71 46.71 0.0 0 0 113.18 117.37
  A 46.71 46.71 0.0 0 0 159.89 70.66
  Z"
/>
<circle fill="#f1f3f5" cx="113.18" cy="70.66" r="46.71"/>
<path fill="#000000" d="
  M 90.58 146.61
  Q 118.57 159.06 144.74 143.38
  Q 151.68 139.22 158.60 134.80
  C 163.25 131.83 168.89 132.52 174.80 133.54
  C 211.46 139.85 220.33 182.76 221.38 213.51
  Q 221.74 224.09 220.50 230.96
  Q 217.19 249.29 202.01 258.48
  C 192.31 264.35 183.08 264.98 170.36 264.98
  Q 111.56 265.01 52.75 264.94
  C 32.53 264.91 14.76 254.25 9.62 234.07
  Q 7.76 226.78 8.06 214.21
  C 8.87 180.31 19.38 136.23 60.73 132.68
  C 64.75 132.34 67.76 132.96 71.38 135.16
  C 77.71 139.01 83.82 143.60 90.58 146.61
  Z
  M 178.23 249.88
  C 192.10 249.84 205.31 240.77 206.28 226.26
  Q 207.63 205.98 202.61 184.48
  C 198.31 166.01 187.70 148.17 166.49 147.79
  Q 166.01 147.78 165.61 148.04
  Q 152.82 156.52 149.18 158.43
  Q 117.43 175.13 84.94 160.59
  C 78.03 157.49 70.79 152.54 63.95 148.09
  Q 63.57 147.85 63.12 147.85
  C 28.57 148.33 23.08 194.38 22.93 219.25
  Q 22.78 242.92 42.16 248.48
  Q 47.47 250.00 60.00 250.00
  Q 119.13 250.03 178.23 249.88
  Z"
/>
<path fill="#f1f3f5" d="
  M 206.28 226.26
  C 205.31 240.77 192.10 249.84 178.23 249.88
  Q 119.13 250.03 60.00 250.00
  Q 47.47 250.00 42.16 248.48
  Q 22.78 242.92 22.93 219.25
  C 23.08 194.38 28.57 148.33 63.12 147.85
  Q 63.57 147.85 63.95 148.09
  C 70.79 152.54 78.03 157.49 84.94 160.59
  Q 117.43 175.13 149.18 158.43
  Q 152.82 156.52 165.61 148.04
  Q 166.01 147.78 166.49 147.79
  C 187.70 148.17 198.31 166.01 202.61 184.48
  Q 207.63 205.98 206.28 226.26
  Z"
/>
</svg>
